<svg width="60" height="60" viewBox="0 0 60 60" fill="none" xmlns="http://www.w3.org/2000/svg">
<path d="M19.6875 34.6875C19.6843 32.1492 20.6174 29.6988 22.3082 27.8055C23.9989 25.9122 26.3286 24.709 28.8511 24.4262C31.3737 24.1434 33.9119 24.8009 35.9799 26.2729C38.0479 27.7448 39.5004 29.9277 40.0594 32.4037C39.5644 32.9212 39.0037 33.435 38.0906 33.8288C36.7894 34.3913 34.6425 34.725 30.9394 33.7987C26.8069 32.7675 24.0206 33.3806 22.0744 34.5881C21.2583 35.1027 20.5266 35.7403 19.905 36.4781L19.8525 36.5363C19.742 35.9262 19.6868 35.3075 19.6875 34.6875ZM14.0625 5.625C11.8247 5.625 9.67862 6.51395 8.09629 8.09629C6.51395 9.67862 5.625 11.8247 5.625 14.0625V45.9375C5.625 48.1753 6.51395 50.3214 8.09629 51.9037C9.67862 53.486 11.8247 54.375 14.0625 54.375H45.9375C48.1753 54.375 50.3214 53.486 51.9037 51.9037C53.486 50.3214 54.375 48.1753 54.375 45.9375V14.0625C54.375 11.8247 53.486 9.67862 51.9037 8.09629C50.3214 6.51395 48.1753 5.625 45.9375 5.625H14.0625ZM30 20.625C33.7296 20.625 37.3065 22.1066 39.9437 24.7438C42.5809 27.381 44.0625 30.9579 44.0625 34.6875C44.0625 38.4171 42.5809 41.994 39.9437 44.6312C37.3065 47.2684 33.7296 48.75 30 48.75C26.2704 48.75 22.6935 47.2684 20.0563 44.6312C17.4191 41.994 15.9375 38.4171 15.9375 34.6875C15.9375 30.9579 17.4191 27.381 20.0563 24.7438C22.6935 22.1066 26.2704 20.625 30 20.625ZM21.5625 15C21.5625 15.7459 21.2662 16.4613 20.7387 16.9887C20.2113 17.5162 19.4959 17.8125 18.75 17.8125C18.0041 17.8125 17.2887 17.5162 16.7613 16.9887C16.2338 16.4613 15.9375 15.7459 15.9375 15C15.9375 14.2541 16.2338 13.5387 16.7613 13.0113C17.2887 12.4838 18.0041 12.1875 18.75 12.1875C19.4959 12.1875 20.2113 12.4838 20.7387 13.0113C21.2662 13.5387 21.5625 14.2541 21.5625 15ZM31.875 13.125H41.25C41.7473 13.125 42.2242 13.3225 42.5758 13.6742C42.9275 14.0258 43.125 14.5027 43.125 15C43.125 15.4973 42.9275 15.9742 42.5758 16.3258C42.2242 16.6775 41.7473 16.875 41.25 16.875H31.875C31.3777 16.875 30.9008 16.6775 30.5492 16.3258C30.1975 15.9742 30 15.4973 30 15C30 14.5027 30.1975 14.0258 30.5492 13.6742C30.9008 13.3225 31.3777 13.125 31.875 13.125Z" fill="url(#paint0_linear_104_284)"/>
<defs>
<linearGradient id="paint0_linear_104_284" x1="30" y1="5.625" x2="30" y2="54.375" gradientUnits="userSpaceOnUse">
<stop stop-color="#05DF72"/>
<stop offset="1" stop-color="#00C950"/>
</linearGradient>
</defs>
</svg>
